# Blender 3.4.1
# www.blender.org
mtllib holderbook.mtl
o Pages.002
v 2.689650 3.120495 -1.122123
v 2.666252 -3.185393 -0.967749
v 2.728991 3.137421 0.959599
v 2.705594 -3.168467 1.113973
v -2.197239 3.135041 -1.122549
v -2.220637 -3.170847 -0.968175
v -2.157898 3.151967 0.959173
v -2.181295 -3.153921 1.113547
v -2.485031 -3.205912 -0.505970
v 2.403014 3.174216 -0.643062
v -2.461633 3.099976 -0.660343
v 2.379617 -3.131672 -0.488688
v -2.464055 -3.202408 0.600662
v 2.439758 3.173474 0.483309
v -2.440657 3.103479 0.446289
v 2.416360 -3.132414 0.637683
v -2.448065 3.125025 -0.098212
v 2.267176 -3.137456 0.094646
v -2.471462 -3.180863 0.056162
v 2.290574 3.168432 -0.059727
v 2.694726 -0.168100 -1.020065
v -2.152822 -0.136629 1.061231
v 2.734067 -0.151175 1.061657
v -2.192163 -0.153555 -1.020491
v 2.408090 -0.114379 -0.541004
v -2.456558 -0.188620 -0.558286
v -2.435581 -0.185117 0.548347
v 2.444834 -0.115122 0.585367
v 2.295650 -0.120164 0.042330
v -2.442989 -0.163571 0.003846
v -0.667736 -3.170378 -0.788338
v -0.611628 3.161403 0.821302
v -0.641032 -3.148777 0.939249
v -0.644338 3.135510 -0.942711
v -0.654362 -3.154197 -0.370173
v -0.636748 3.141943 -0.515751
v -0.639631 -3.171977 0.499525
v -0.636203 3.146997 0.417615
v -0.626412 3.166600 -0.075247
v -0.649810 -3.139288 0.079126
v -0.639263 -0.153086 -0.840654
v -0.606552 -0.127193 0.923360
v 0.983844 -3.163465 0.933641
v 0.980537 3.120821 -0.948320
v 0.988128 3.127254 -0.521359
v 0.988673 3.132308 0.412006
v 0.998463 3.151911 -0.080856
v 0.985613 -0.167774 -0.846262
v 0.957140 -3.185066 -0.793946
v 1.013248 3.146713 0.815694
v 0.970514 -3.168885 -0.375782
v 0.985245 -3.186666 0.493916
v 0.975066 -3.153977 0.073518
v 1.018324 -0.141882 0.917752
vn -0.0065 1.0000 -0.0048
vn -0.7511 0.6318 0.1914
vn -0.3835 0.6595 0.6465
vn 0.0276 0.7705 0.6368
vn 0.0490 0.0194 0.9986
vn -0.4836 0.0212 0.8750
vn -0.9703 -0.0017 -0.2417
vn -0.7570 0.6215 -0.2018
vn -0.3654 0.6317 -0.6837
vn -0.4682 -0.0198 -0.8834
vn 0.0072 -0.9998 -0.0195
vn 0.6237 -0.7292 -0.2816
vn 0.7113 -0.5631 0.4207
vn -0.0265 -0.7362 0.6762
vn 0.9183 -0.0132 -0.3957
vn 0.6071 0.7563 -0.2436
vn 0.7472 0.5495 0.3738
vn 0.8785 0.0048 0.4777
vn -0.0527 -0.0239 -0.9983
vn -0.0398 0.7153 -0.6976
vn 0.7401 0.5325 -0.4107
vn 0.8767 -0.0156 -0.4808
vn 0.5960 0.7804 0.1892
vn 0.9351 0.0052 0.3543
vn -0.0316 -0.7713 -0.6356
vn 0.7103 -0.5813 -0.3970
vn 0.6305 -0.7250 0.2772
vn 0.0056 -0.9991 0.0411
vn -0.9998 0.0042 0.0188
vn -0.7071 0.7071 0.0091
vn 0.0353 0.7396 -0.6721
vn -0.0046 0.9997 -0.0242
vn -0.9672 0.0101 0.2539
vn 0.9992 -0.0050 -0.0394
vn 0.6368 0.7707 -0.0234
vn 0.0074 -0.9998 -0.0167
vn 0.6491 -0.7599 -0.0347
vn -0.0063 1.0000 -0.0062
vn -0.7204 -0.6678 0.1873
vn -0.7156 -0.6985 0.0083
vn -0.3773 -0.5913 0.7127
vn -0.7262 -0.6660 -0.1705
vn -0.3694 -0.6201 -0.6922
vn 0.0372 -0.7172 0.6959
vn -0.0428 0.0198 0.9989
vn 0.0556 -0.0244 -0.9982
vn 0.0407 -0.7532 -0.6565
vn 0.0057 -0.9997 0.0246
vn 0.0061 -0.9999 -0.0155
vn -0.0070 0.9991 -0.0409
vn -0.0072 1.0000 -0.0051
vn -0.0036 0.9999 0.0117
vn 0.0041 -1.0000 -0.0038
vn -0.0278 0.7517 0.6589
vt 0.392673 0.741299
vt 0.537754 0.698757
vt 0.540926 0.312792
vt 0.003928 0.739884
vt 0.402449 0.698758
vt 0.394224 0.001955
vt 0.394712 0.312953
vt 0.004370 0.000315
vt 0.530786 0.984217
vt 0.394527 0.436344
vt 0.003647 0.435004
vt 0.530130 0.016270
vt 0.420982 0.984216
vt 0.393033 0.307451
vt 0.002745 0.306212
vt 0.416594 0.016503
vt 0.000912 0.403872
vt 0.505212 0.000092
vt 0.506635 0.710249
vt 0.391817 0.405247
vt 0.506717 0.999908
vt 0.506925 0.302781
vt 0.000092 0.340503
vt 0.444930 0.000238
vt 0.433770 0.709514
vt 0.448413 0.999908
vt 0.390651 0.341814
vt 0.428506 0.303517
vt 0.477092 0.999701
vt 0.392661 0.372991
vt 0.466609 0.298113
vt 0.001948 0.371664
vt 0.474580 0.000382
vt 0.469007 0.714042
vt 0.531123 0.501193
vt 0.189872 0.741299
vt 0.189457 0.305948
vt 0.404128 0.500267
vt 0.190878 0.000092
vt 0.190656 0.435184
vt 0.499362 0.503630
vt 0.187931 0.403909
vt 0.186937 0.340316
vt 0.435962 0.502456
vt 0.467232 0.502536
vt 0.188866 0.371561
vt 0.004133 0.532046
vt 0.518690 0.108166
vt 0.394450 0.210664
vt 0.426411 0.895386
vt 0.003987 0.209551
vt 0.424350 0.108009
vt 0.519507 0.895359
vt 0.393734 0.533403
vt 0.495878 0.108608
vt 0.496991 0.895319
vt 0.448355 0.108627
vt 0.447741 0.896301
vt 0.473717 0.895147
vt 0.471371 0.108484
vt 0.190508 0.533074
vt 0.190910 0.209010
vt 0.003918 0.108192
vt 0.422188 0.204363
vt 0.518451 0.802122
vt 0.392573 0.634507
vt 0.495669 0.801158
vt 0.445902 0.802221
vt 0.472105 0.800734
vt 0.189647 0.634458
vt 0.003564 0.633126
vt 0.517815 0.204505
vt 0.424134 0.802178
vt 0.394240 0.109292
vt 0.494907 0.206108
vt 0.446437 0.206134
vt 0.469929 0.206291
vt 0.190778 0.107508
s 1
usemtl Material.056
f 38/58/1 15/26/2 7/13/3 32/50/4
f 42/62/5 32/49/4 7/14/3 22/37/6
f 26/42/7 11/20/8 5/10/9 24/40/10
f 52/76/11 16/28/12 4/7/13 43/64/14
f 28/44/15 14/25/16 3/5/17 23/38/18
f 48/70/19 44/66/20 1/1/21 21/36/22
f 21/35/22 1/2/21 10/19/23 25/41/24
f 49/72/25 2/3/26 12/22/27 51/75/28
f 30/46/29 17/30/30 11/20/8 26/42/7
f 34/53/31 5/9/9 11/21/8 36/56/32
f 22/37/6 7/14/3 15/27/2 27/43/33
f 29/45/34 20/34/35 14/25/16 28/44/15
f 53/77/36 18/31/37 16/28/12 52/76/11
f 39/59/38 17/29/30 15/26/2 38/58/1
f 36/56/32 11/21/8 17/29/30 39/59/38
f 51/75/28 12/22/27 18/31/37 53/77/36
f 25/41/24 10/19/23 20/34/35 29/45/34
f 27/43/33 15/27/2 17/30/30 30/46/29
f 13/23/39 27/43/33 30/46/29 19/32/40
f 12/22/27 25/41/24 29/45/34 18/31/37
f 18/31/37 29/45/34 28/44/15 16/28/12
f 8/15/41 22/37/6 27/43/33 13/23/39
f 19/32/40 30/46/29 26/42/7 9/17/42
f 2/3/26 21/35/22 25/41/24 12/22/27
f 49/71/25 48/70/19 21/36/22 2/4/26
f 16/28/12 28/44/15 23/38/18 4/7/13
f 9/17/42 26/42/7 24/40/10 6/11/43
f 33/51/44 42/62/5 22/37/6 8/15/41
f 43/63/14 54/78/45 42/62/5 33/51/44
f 6/11/43 24/40/10 41/61/46 31/47/47
f 9/18/42 35/55/48 40/60/49 19/33/40
f 45/67/50 36/56/32 39/59/38 47/69/51
f 47/69/51 39/59/38 38/58/1 46/68/52
f 19/33/40 40/60/49 37/57/53 13/24/39
f 44/65/20 34/53/31 36/56/32 45/67/50
f 6/12/43 31/48/47 35/55/48 9/18/42
f 24/40/10 5/10/9 34/54/31 41/61/46
f 13/24/39 37/57/53 33/52/44 8/16/41
f 54/78/45 50/74/54 32/49/4 42/62/5
f 46/68/52 38/58/1 32/50/4 50/73/54
f 14/25/16 46/68/52 50/73/54 3/5/17
f 23/39/18 3/6/17 50/74/54 54/78/45
f 1/2/21 44/65/20 45/67/50 10/19/23
f 20/34/35 47/69/51 46/68/52 14/25/16
f 10/19/23 45/67/50 47/69/51 20/34/35
f 4/8/13 23/39/18 54/78/45 43/63/14
f 31/47/47 41/61/46 48/70/19 49/71/25
f 35/55/48 51/75/28 53/77/36 40/60/49
f 40/60/49 53/77/36 52/76/11 37/57/53
f 31/48/47 49/72/25 51/75/28 35/55/48
f 41/61/46 34/54/31 44/66/20 48/70/19
f 37/57/53 52/76/11 43/64/14 33/52/44
o Cover.001
v 3.053774 3.449401 -1.198269
v 3.054099 -3.512720 -1.149879
v 3.110892 3.434347 1.038952
v 3.124615 -3.505039 1.200111
v -2.172951 3.477100 -1.191402
v -2.224686 -3.395809 -1.110726
v -2.155192 3.516264 0.982414
v -2.138523 -3.456341 1.062166
v -2.499538 -3.421489 -0.530903
v -2.466690 3.460994 -0.612032
v -2.468105 -3.427371 0.500048
v -2.452388 3.463400 0.487361
v -2.509524 3.473342 -0.047320
v -2.475513 -3.405825 -0.059008
v 3.067424 -0.193012 -1.154667
v -1.992648 -0.125025 1.063786
v 3.149095 -0.194119 1.232209
v -2.072138 -0.063396 -1.072287
v -2.394909 -0.205306 -0.654336
v -2.373933 -0.201802 0.481878
v -2.381341 -0.180257 -0.077178
v -0.623276 -3.472797 -0.868187
v -0.673087 3.509720 0.896774
v -0.587815 -3.449134 0.947188
v -0.713045 3.489487 -1.049926
v -0.586096 -0.066242 -0.794825
v -0.542930 -0.049736 0.911080
v 1.025336 -3.462669 0.932025
v 0.902808 3.483354 -1.026103
v 1.096059 -0.167774 -0.870321
v 1.016819 -3.485620 -0.865094
v 0.951789 3.495031 0.891016
v 1.128769 -0.141882 0.940846
v 3.043784 3.449389 -1.425282
v -2.204769 3.472131 -1.394524
v -0.723035 3.489475 -1.276939
v 0.892817 3.483342 -1.253116
v 3.033638 -0.209049 -1.427560
v -2.115503 -0.169591 -1.322101
v -0.641879 -0.169127 -1.149887
v 0.982997 -0.183815 -1.155645
v 2.968907 -3.534244 -1.429247
v -2.244787 -3.496011 -1.306890
v -0.705101 -3.494320 -1.102923
v 0.945230 -3.507995 -1.099800
v -2.636770 3.455884 -0.634135
v -2.648009 3.436558 0.502871
v -2.705145 3.446500 -0.031810
v -2.565730 -0.193397 -0.566701
v -2.544754 -0.189894 0.569512
v -2.552162 -0.168348 0.010456
v -2.647084 -3.501688 -0.607755
v -2.626953 -3.498186 0.574293
v -2.633516 -3.476638 -0.030598
v 3.097676 -3.512339 1.419771
v -2.166308 -3.463643 1.327661
v -0.614755 -3.456433 1.166847
v 0.998396 -3.469969 1.151685
v -2.077671 -0.161065 1.354440
v 3.113801 -0.218555 1.498489
v -0.641531 -0.140458 1.200401
v 0.983345 -0.155147 1.194643
v 3.083261 3.423005 1.300078
v -2.182823 3.504922 1.243541
v -0.700718 3.498377 1.157901
v 0.924158 3.483688 1.152143
vn 0.0388 0.0081 0.9992
vn 0.0203 -0.7503 0.6608
vn -0.1607 -0.8823 0.4424
vn -0.4540 0.0073 0.8910
vn -0.9638 0.0044 -0.2667
vn -0.5841 -0.7913 -0.1807
vn -0.1884 -0.8817 -0.4325
vn -0.4343 -0.0132 -0.9007
vn -0.0738 -0.0185 -0.9971
vn -0.0484 -0.7480 -0.6619
vn -0.6484 -0.5986 -0.4705
vn -0.8277 -0.0058 -0.5611
vn -0.9998 0.0005 0.0204
vn -0.6284 -0.7779 0.0042
vn -0.5401 -0.8173 0.2006
vn -0.9572 0.0043 0.2896
vn -0.7303 0.6515 0.2056
vn -0.8438 0.5363 0.0191
vn -0.3206 0.8133 0.4856
vn -0.7953 0.5734 -0.1966
vn -0.0504 0.6968 -0.7155
vn -0.7091 0.5388 -0.4548
vn -0.4053 0.6817 -0.6091
vn 0.0313 0.7240 0.6891
vn -0.0376 0.7158 0.6973
vn -0.0638 0.0101 0.9979
vn 0.0661 -0.0215 -0.9976
vn 0.0641 0.6715 -0.7382
vn 0.0438 -0.7539 -0.6555
vn -0.0505 -0.7479 0.6619
vn -0.8270 0.0050 0.5622
vn -0.6562 -0.5881 0.4729
vn -0.6625 0.5844 0.4685
vn -0.0326 -0.7399 0.6719
vn 0.0252 -0.7461 0.6654
vn 0.3822 -0.6231 0.6824
vn -0.5535 -0.5825 0.5953
vn -0.0097 0.8304 0.5571
vn 0.3211 0.7382 0.5933
vn 0.0540 0.7931 0.6067
vn -0.4657 0.6614 0.5879
vn -0.6447 0.0110 0.7644
vn 0.0626 0.0164 0.9979
vn 0.4638 0.0112 0.8859
vn -0.0559 0.0210 0.9982
vn 0.7772 -0.5871 -0.2266
vn 0.7811 -0.6243 -0.0114
vn 0.7476 -0.6294 0.2120
vn 0.5636 0.8260 -0.0056
vn 0.6470 0.7405 -0.1819
vn 0.5990 0.7894 0.1345
vn -0.0349 0.7649 -0.6432
vn 0.0523 0.7710 -0.6347
vn 0.3462 0.6568 -0.6700
vn -0.5130 0.6243 -0.5891
vn -0.0337 -0.7366 -0.6755
vn 0.3796 -0.6419 -0.6663
vn 0.0192 -0.7410 -0.6712
vn -0.5414 -0.5901 -0.5989
vn -0.6523 -0.0063 -0.7580
vn 0.0573 -0.0037 -0.9984
vn 0.9652 0.0010 0.2615
vn -0.0491 -0.0033 -0.9988
vn 0.4610 -0.0061 -0.8874
vn 0.9587 -0.0003 -0.2844
vn 0.9999 0.0051 -0.0118
vt 0.749408 0.683549
vt 0.891497 0.315216
vt 0.379420 0.683549
vt 0.882336 0.687868
vt 0.751546 0.004137
vt 0.784719 0.317964
vt 0.381037 0.000141
vt 0.772522 0.686187
vt 0.755647 0.402833
vt 0.889876 0.028912
vt 0.381669 0.398968
vt 0.891891 0.971330
vt 0.757025 0.287938
vt 0.783181 0.031044
vt 0.378830 0.284598
vt 0.788298 0.974235
vt 0.380110 0.367198
vt 0.866729 0.987990
vt 0.754704 0.370750
vt 0.861283 0.013031
vt 0.379922 0.317157
vt 0.817167 0.990231
vt 0.754575 0.316910
vt 0.807307 0.014302
vt 0.755322 0.343143
vt 0.833546 0.010971
vt 0.381079 0.344257
vt 0.844079 0.988535
vt 0.555893 0.683187
vt 0.888269 0.512672
vt 0.559524 0.282225
vt 0.557921 0.000770
vt 0.770399 0.511164
vt 0.563120 0.401282
vt 0.555219 0.374006
vt 0.555341 0.317823
vt 0.556551 0.345444
vt 0.379858 0.485302
vt 0.879240 0.886648
vt 0.755746 0.208011
vt 0.788005 0.112220
vt 0.381386 0.201025
vt 0.789958 0.888569
vt 0.753739 0.481098
vt 0.883669 0.109138
vt 0.562581 0.484732
vt 0.564241 0.201981
vt 0.381938 0.114081
vt 0.787301 0.800078
vt 0.752020 0.567936
vt 0.883211 0.197867
vt 0.557127 0.576111
vt 0.380040 0.573383
vt 0.875732 0.797144
vt 0.754655 0.120485
vt 0.789131 0.201167
vt 0.559986 0.110897
vt 0.902609 0.314978
vt 0.003687 0.712270
vt 0.899834 0.027062
vt 0.000141 0.429674
vt 0.894812 0.108494
vt 0.000648 0.509419
vt 0.894351 0.197279
vt 0.001677 0.596385
vt 0.901814 0.513821
vt 0.198502 0.711741
vt 0.197425 0.430473
vt 0.197244 0.512019
vt 0.197719 0.600352
vt 0.896207 0.690547
vt 0.375427 0.709980
vt 0.902609 0.972852
vt 0.377510 0.428373
vt 0.890948 0.890819
vt 0.375667 0.511437
vt 0.887353 0.800436
vt 0.375217 0.600147
vt 0.862279 0.003674
vt 0.001187 0.386228
vt 0.806439 0.003459
vt 0.002965 0.330543
vt 0.832680 0.000141
vt 0.001949 0.356720
vt 0.199079 0.385741
vt 0.199417 0.329905
vt 0.197980 0.357343
vt 0.871495 0.996586
vt 0.378465 0.388244
vt 0.813842 0.999859
vt 0.378548 0.331027
vt 0.843422 0.998044
vt 0.377203 0.360301
vt 0.761861 0.687229
vt 0.378548 0.001415
vt 0.775283 0.976489
vt 0.376465 0.286959
vt 0.779224 0.890507
vt 0.375629 0.202739
vt 0.776587 0.801830
vt 0.376295 0.115603
vt 0.198366 0.283653
vt 0.757306 0.512328
vt 0.202139 0.000141
vt 0.197427 0.204766
vt 0.198403 0.116422
vt 0.772022 0.317492
vt 0.007119 0.001689
vt 0.770356 0.029581
vt 0.000391 0.286519
vt 0.775169 0.110822
vt 0.001700 0.206196
vt 0.776359 0.199885
vt 0.003201 0.118417
s 1
usemtl Material.057
f 81/125/55 77/118/56 61/91/57 70/109/58
f 73/113/59 64/97/60 59/87/61 72/112/62
f 84/130/63 83/128/64 55/79/65 69/107/66
f 75/115/67 67/103/68 64/97/60 73/113/59
f 70/109/58 61/91/57 66/101/69 74/114/70
f 74/114/70 66/101/69 67/103/68 75/115/67
f 65/99/71 74/114/70 75/115/67 68/105/72
f 62/93/73 70/109/58 74/114/70 65/99/71
f 68/105/72 75/115/67 73/113/59 63/95/74
f 85/131/75 84/130/63 69/107/66 56/81/76
f 63/95/74 73/113/59 72/112/62 60/89/77
f 78/120/78 81/125/55 70/109/58 62/93/73
f 82/126/79 87/135/80 81/125/55 78/120/78
f 60/89/77 72/112/62 80/124/81 76/116/82
f 72/112/62 59/87/61 79/122/83 80/124/81
f 87/135/80 86/133/84 77/118/56 81/125/55
f 71/110/85 57/83/86 86/133/84 87/135/80
f 58/85/87 71/110/85 87/135/80 82/126/79
f 76/116/82 80/124/81 84/130/63 85/131/75
f 80/124/81 79/122/83 83/128/64 84/130/63
f 83/129/64 79/123/83 90/140/88 91/142/89
f 79/123/83 59/88/61 89/138/90 90/140/88
f 55/80/65 83/129/64 91/142/89 88/136/91
f 60/90/77 76/117/82 98/153/92 97/151/93
f 76/117/82 85/132/75 99/155/94 98/153/92
f 85/132/75 56/82/76 96/149/95 99/155/94
f 69/108/66 55/80/65 88/136/91 92/144/96
f 56/82/76 69/108/66 92/144/96 96/149/95
f 88/137/91 91/143/89 95/148/97 92/145/96
f 95/148/97 99/156/94 96/150/95 92/145/96
f 90/141/88 89/139/90 93/146/98 94/147/99
f 93/146/98 97/152/93 98/154/92 94/147/99
f 91/143/89 90/141/88 94/147/99 95/148/97
f 94/147/99 98/154/92 99/156/94 95/148/97
f 67/104/68 66/102/69 101/159/100 102/161/101
f 64/98/60 67/104/68 102/161/101 100/157/102
f 65/100/71 68/106/72 108/170/103 107/168/104
f 68/106/72 63/96/74 106/166/105 108/170/103
f 63/96/74 60/90/77 97/151/93 106/166/105
f 82/127/79 78/121/78 111/176/106 112/178/107
f 78/121/78 62/94/73 110/174/108 111/176/106
f 58/86/87 82/127/79 112/178/107 109/172/109
f 61/92/57 77/119/56 119/189/110 118/187/111
f 77/119/56 86/134/84 120/191/112 119/189/110
f 86/134/84 57/84/86 117/185/113 120/191/112
f 57/84/86 71/111/85 114/181/114 117/185/113
f 71/111/85 58/86/87 109/172/109 114/181/114
f 116/184/115 120/192/112 117/186/113 114/182/114
f 62/94/73 65/100/71 107/168/104 110/174/108
f 64/98/60 100/157/102 89/138/90 59/88/61
f 61/92/57 118/187/111 101/159/100 66/102/69
f 89/139/90 100/158/102 103/163/116 93/146/98
f 112/179/107 116/184/115 114/182/114 109/173/109
f 111/177/106 115/183/117 116/184/115 112/179/107
f 110/175/108 113/180/118 115/183/117 111/177/106
f 110/175/108 107/169/104 104/164/119 113/180/118
f 93/146/98 103/163/116 106/167/105 97/152/93
f 105/165/120 108/171/103 106/167/105 103/163/116
f 104/164/119 107/169/104 108/171/103 105/165/120
f 100/158/102 102/162/101 105/165/120 103/163/116
f 102/162/101 101/160/100 104/164/119 105/165/120
f 118/188/111 113/180/118 104/164/119 101/160/100
f 113/180/118 118/188/111 119/190/110 115/183/117
f 115/183/117 119/190/110 120/192/112 116/184/115
l 103 73
l 84 95
l 93 72
l 94 80
l 74 104
l 113 70
l 75 105
l 116 87
l 81 115
